<?xml version="1.0" encoding="UTF-8" standalone="no"?>
<!-- Created with Inkscape (http://www.inkscape.org/) -->

<svg
   xmlns:dc="http://purl.org/dc/elements/1.1/"
   xmlns:cc="http://creativecommons.org/ns#"
   xmlns:rdf="http://www.w3.org/1999/02/22-rdf-syntax-ns#"
   xmlns:svg="http://www.w3.org/2000/svg"
   xmlns="http://www.w3.org/2000/svg"
   xmlns:xlink="http://www.w3.org/1999/xlink"
   xmlns:sodipodi="http://sodipodi.sourceforge.net/DTD/sodipodi-0.dtd"
   xmlns:inkscape="http://www.inkscape.org/namespaces/inkscape"
   width="744.09448819"
   height="1052.3622047"
   id="svg14006"
   version="1.1"
   inkscape:version="0.48.2 r9819"
   sodipodi:docname="voodoo_cactus_island.svg">
  <defs
     id="defs14008">
    <linearGradient
       inkscape:collect="always"
       xlink:href="#linearGradient12925"
       id="linearGradient13737"
       gradientUnits="userSpaceOnUse"
       x1="-3891.3091"
       y1="1947.2039"
       x2="-3895.3674"
       y2="2546.637" />
    <linearGradient
       id="linearGradient12925">
      <stop
         style="stop-color:#55eaff;stop-opacity:1"
         offset="0"
         id="stop12927" />
      <stop
         style="stop-color:#dafae1;stop-opacity:1"
         offset="1"
         id="stop12929" />
    </linearGradient>
    <linearGradient
       inkscape:collect="always"
       xlink:href="#linearGradient12925"
       id="linearGradient13733"
       gradientUnits="userSpaceOnUse"
       x1="-3891.3091"
       y1="1947.2039"
       x2="-3895.3674"
       y2="2546.637" />
    <linearGradient
       id="linearGradient13849">
      <stop
         style="stop-color:#55eaff;stop-opacity:1"
         offset="0"
         id="stop13851" />
      <stop
         style="stop-color:#dafae1;stop-opacity:1"
         offset="1"
         id="stop13853" />
    </linearGradient>
    <linearGradient
       inkscape:collect="always"
       xlink:href="#linearGradient12925"
       id="linearGradient13735"
       gradientUnits="userSpaceOnUse"
       x1="-3891.3091"
       y1="1947.2039"
       x2="-3895.3674"
       y2="2546.637" />
    <linearGradient
       id="linearGradient13856">
      <stop
         style="stop-color:#55eaff;stop-opacity:1"
         offset="0"
         id="stop13858" />
      <stop
         style="stop-color:#dafae1;stop-opacity:1"
         offset="1"
         id="stop13860" />
    </linearGradient>
    <radialGradient
       inkscape:collect="always"
       xlink:href="#linearGradient5118-4"
       id="radialGradient12905"
       gradientUnits="userSpaceOnUse"
       gradientTransform="matrix(1.3619673,0.06144439,-0.02717304,0.60231331,108.65749,-128.65416)"
       cx="464.13596"
       cy="-259.70935"
       fx="464.13596"
       fy="-259.70935"
       r="73.724228" />
    <linearGradient
       id="linearGradient5118-4">
      <stop
         id="stop5120-3"
         offset="0"
         style="stop-color:#5eacf4;stop-opacity:1;" />
      <stop
         id="stop5122-9"
         offset="1"
         style="stop-color:#96f0f0;stop-opacity:0.05982906;" />
    </linearGradient>
    <linearGradient
       inkscape:collect="always"
       xlink:href="#linearGradient6491-1"
       id="linearGradient12907"
       gradientUnits="userSpaceOnUse"
       x1="650.20679"
       y1="-319.88025"
       x2="646.89221"
       y2="-307.72687" />
    <linearGradient
       id="linearGradient6491-1"
       inkscape:collect="always">
      <stop
         id="stop6493-7"
         offset="0"
         style="stop-color:#d6fdfd;stop-opacity:1;" />
      <stop
         id="stop6495-4"
         offset="1"
         style="stop-color:#d6fdfd;stop-opacity:0;" />
    </linearGradient>
    <radialGradient
       inkscape:collect="always"
       xlink:href="#linearGradient5118-4"
       id="radialGradient12909"
       gradientUnits="userSpaceOnUse"
       gradientTransform="matrix(0.7047666,-1.1670623,0.51611896,0.31167438,318.31504,351.12214)"
       cx="475.67386"
       cy="-270.97531"
       fx="475.67386"
       fy="-270.97531"
       r="73.724228" />
    <linearGradient
       id="linearGradient13871">
      <stop
         id="stop13873"
         offset="0"
         style="stop-color:#5eacf4;stop-opacity:1;" />
      <stop
         id="stop13875"
         offset="1"
         style="stop-color:#96f0f0;stop-opacity:0.05982906;" />
    </linearGradient>
    <radialGradient
       inkscape:collect="always"
       xlink:href="#linearGradient4398-4"
       id="radialGradient12911"
       gradientUnits="userSpaceOnUse"
       gradientTransform="matrix(0.64987039,0.54321465,-0.5235201,0.62630934,120.48159,-480.2544)"
       cx="596.34442"
       cy="-159.72897"
       fx="596.34442"
       fy="-159.72897"
       r="149.01352" />
    <linearGradient
       id="linearGradient4398-4">
      <stop
         id="stop4400-6"
         offset="0"
         style="stop-color:#fbffff;stop-opacity:1;" />
      <stop
         id="stop4402-0"
         offset="1"
         style="stop-color:#b0fbfb;stop-opacity:1;" />
    </linearGradient>
    <linearGradient
       inkscape:collect="always"
       xlink:href="#linearGradient4424-2"
       id="linearGradient12913"
       gradientUnits="userSpaceOnUse"
       x1="497.46808"
       y1="-265.34769"
       x2="795.49512"
       y2="-265.34769" />
    <linearGradient
       id="linearGradient4424-2">
      <stop
         id="stop4426-2"
         offset="0"
         style="stop-color:#e0ffff;stop-opacity:1;" />
      <stop
         id="stop4428-1"
         offset="1"
         style="stop-color:#00e3ff;stop-opacity:0.03448276;" />
    </linearGradient>
    <radialGradient
       inkscape:collect="always"
       xlink:href="#linearGradient5118-4"
       id="radialGradient13741"
       gradientUnits="userSpaceOnUse"
       gradientTransform="matrix(1.3619673,0.06144439,-0.02717304,0.60231331,108.65749,-128.65416)"
       cx="464.13596"
       cy="-259.70935"
       fx="464.13596"
       fy="-259.70935"
       r="73.724228" />
    <linearGradient
       id="linearGradient13886">
      <stop
         id="stop13888"
         offset="0"
         style="stop-color:#5eacf4;stop-opacity:1;" />
      <stop
         id="stop13890"
         offset="1"
         style="stop-color:#96f0f0;stop-opacity:0.05982906;" />
    </linearGradient>
    <linearGradient
       inkscape:collect="always"
       xlink:href="#linearGradient6491-1"
       id="linearGradient13743"
       gradientUnits="userSpaceOnUse"
       x1="650.20679"
       y1="-319.88025"
       x2="646.89221"
       y2="-307.72687" />
    <radialGradient
       inkscape:collect="always"
       xlink:href="#linearGradient5118-4"
       id="radialGradient13745"
       gradientUnits="userSpaceOnUse"
       gradientTransform="matrix(0.7047666,-1.1670623,0.51611896,0.31167438,318.31504,351.12214)"
       cx="475.67386"
       cy="-270.97531"
       fx="475.67386"
       fy="-270.97531"
       r="73.724228" />
    <linearGradient
       id="linearGradient13900">
      <stop
         id="stop13902"
         offset="0"
         style="stop-color:#5eacf4;stop-opacity:1;" />
      <stop
         id="stop13904"
         offset="1"
         style="stop-color:#96f0f0;stop-opacity:0.05982906;" />
    </linearGradient>
    <radialGradient
       inkscape:collect="always"
       xlink:href="#linearGradient4398-4"
       id="radialGradient13747"
       gradientUnits="userSpaceOnUse"
       gradientTransform="matrix(0.64987039,0.54321465,-0.5235201,0.62630934,120.48159,-480.2544)"
       cx="596.34442"
       cy="-159.72897"
       fx="596.34442"
       fy="-159.72897"
       r="149.01352" />
    <linearGradient
       id="linearGradient13907">
      <stop
         id="stop13909"
         offset="0"
         style="stop-color:#fbffff;stop-opacity:1;" />
      <stop
         id="stop13911"
         offset="1"
         style="stop-color:#b0fbfb;stop-opacity:1;" />
    </linearGradient>
    <linearGradient
       inkscape:collect="always"
       xlink:href="#linearGradient4424-2"
       id="linearGradient13749"
       gradientUnits="userSpaceOnUse"
       x1="497.46808"
       y1="-265.34769"
       x2="795.49512"
       y2="-265.34769" />
    <linearGradient
       id="linearGradient13914">
      <stop
         id="stop13916"
         offset="0"
         style="stop-color:#e0ffff;stop-opacity:1;" />
      <stop
         id="stop13918"
         offset="1"
         style="stop-color:#00e3ff;stop-opacity:0.03448276;" />
    </linearGradient>
    <linearGradient
       inkscape:collect="always"
       xlink:href="#linearGradient13725"
       id="linearGradient13739"
       gradientUnits="userSpaceOnUse"
       x1="-4628.0371"
       y1="2652.2285"
       x2="-4628.0371"
       y2="2776.249"
       gradientTransform="matrix(1.4167191,0,0,0.75353218,2403.6681,559.21592)" />
    <linearGradient
       inkscape:collect="always"
       id="linearGradient13725">
      <stop
         style="stop-color:#44b7f2;stop-opacity:1"
         offset="0"
         id="stop13727" />
      <stop
         style="stop-color:#00ded3;stop-opacity:1"
         offset="1"
         id="stop13729" />
    </linearGradient>
  </defs>
  <sodipodi:namedview
     id="base"
     pagecolor="#ffffff"
     bordercolor="#ffffff"
     borderopacity="0.0"
     inkscape:pageopacity="0.0"
     inkscape:pageshadow="0"
     inkscape:zoom="0.0875"
     inkscape:cx="1388.2709"
     inkscape:cy="1502.3525"
     inkscape:document-units="px"
     inkscape:current-layer="layer1"
     showgrid="false"
     inkscape:window-width="1920"
     inkscape:window-height="1032"
     inkscape:window-x="0"
     inkscape:window-y="0"
     inkscape:window-maximized="1" />
  <metadata
     id="metadata14011">
    <rdf:RDF>
      <cc:Work
         rdf:about="">
        <dc:format>image/svg+xml</dc:format>
        <dc:type
           rdf:resource="http://purl.org/dc/dcmitype/StillImage" />
        <dc:title></dc:title>
      </cc:Work>
    </rdf:RDF>
  </metadata>
  <g
     inkscape:label="Layer 1"
     inkscape:groupmode="layer"
     id="layer1">
    <g
       transform="matrix(2.7675675,0,0,2.6297064,11056.583,-6420.1176)"
       id="g13751"
       inkscape:export-filename="/Users/lzubiaur/Dev/Assets/VoodooCactus FREE/voodoo_cactus_island.png"
       inkscape:export-xdpi="90"
       inkscape:export-ydpi="90">
      <g
         id="g12693"
         inkscape:label="#g23478"
         transform="matrix(0.7,0,0,0.7,-1723.7773,839.22154)">
        <g
           style="fill:url(#linearGradient13737);fill-opacity:1"
           transform="matrix(1.468254,0,0,1.0288074,1644.4443,-65.883963)"
           id="g12695">
          <path
             style="font-size:medium;font-style:normal;font-variant:normal;font-weight:normal;font-stretch:normal;text-indent:0;text-align:start;text-decoration:none;line-height:normal;letter-spacing:normal;word-spacing:normal;text-transform:none;direction:ltr;block-progression:tb;writing-mode:lr-tb;text-anchor:start;baseline-shift:baseline;color:#000000;fill:url(#linearGradient13733);fill-opacity:1;fill-rule:nonzero;stroke:none;stroke-width:129.90380859;marker:none;visibility:visible;display:inline;overflow:visible;enable-background:accumulate;font-family:Sans;-inkscape-font-specification:Sans"
             d="M -4275.5938,1845.0938 -4275.5938,1975 -3555.5938,1975 -3555.5938,1845.0938 -4275.5938,1845.0938 z"
             id="path12697"
             inkscape:connector-curvature="0" />
          <path
             style="font-size:medium;font-style:normal;font-variant:normal;font-weight:normal;font-stretch:normal;text-indent:0;text-align:start;text-decoration:none;line-height:normal;letter-spacing:normal;word-spacing:normal;text-transform:none;direction:ltr;block-progression:tb;writing-mode:lr-tb;text-anchor:start;baseline-shift:baseline;color:#000000;fill:url(#linearGradient13735);fill-opacity:1;fill-rule:nonzero;stroke:none;stroke-width:129.90380859;marker:none;visibility:visible;display:inline;overflow:visible;enable-background:accumulate;font-family:Sans;-inkscape-font-specification:Sans"
             d="M -4275.5938,1845.0938 -4275.5938,2562.6216 -3555.5938,2562.6216 -3555.5938,1845.0938 -4275.5938,1845.0938 z"
             id="path12711"
             inkscape:connector-curvature="0" />
        </g>
        <g
           id="g12713"
           transform="matrix(-1,0,0,1,-3127.9107,2427.9356)">
          <path
             sodipodi:nodetypes="ccccc"
             inkscape:connector-curvature="0"
             id="path12715"
             d="M 671.43528,-301.11161 C 696.78578,-314.1778 743.66568,-320.54709 743.21493,-266.93193 820.99787,-313.77274 835.39723,-246.78472 848.00048,-229.6583 815.38708,-224.51257 873.4081,-241.92777 837.2475,-208.36567 z"
             style="fill:url(#radialGradient12905);fill-opacity:1;stroke:none" />
          <path
             style="fill:url(#linearGradient12907);fill-opacity:1;stroke:none"
             d="M 596.62135,-324.8521 C 603.02015,-344.65076 638.60256,-353.52512 671.19902,-297.78317 718.17945,-322.32307 738.00946,-294.67947 736.38542,-294.46861 686.93438,-274.36185 636.27387,-305.76479 596.62135,-324.8521 z"
             id="path12717"
             inkscape:connector-curvature="0"
             sodipodi:nodetypes="cccc" />
          <path
             style="fill:url(#radialGradient12909);fill-opacity:1;stroke:none"
             d="M 472.87766,-206.08026 C 455.39497,-232.49967 427.50966,-263.9313 488.46816,-266.10525 467.92477,-306.712 507.07241,-319.41771 519.47111,-307.52579 482.13816,-346.04703 588.28433,-377.62631 600.48834,-329.82394 z"
             id="path12719"
             inkscape:connector-curvature="0"
             sodipodi:nodetypes="ccccc" />
          <path
             style="fill:#fdfdfd;fill-opacity:1;stroke:none"
             d="M 470.82673,-205.9055 C 593.07877,-252.01636 726.92379,-197.17782 850,-227.62027 817.90504,-243.40916 834.41756,-307.80552 743.09652,-264.36834 733.71489,-312.99558 707.86287,-305.40538 689.64479,-301.11641 661.27624,-288.58208 635.30877,-360.45426 601.7332,-328.07781 573.54062,-375.01953 501.94503,-325.35458 522.52959,-309.61218 477.7852,-302.79113 484.55345,-274.66894 492.5415,-264.36834 465.29496,-259.88694 445.29374,-249.97154 470.82673,-205.9055 z"
             id="path12721"
             inkscape:connector-curvature="0"
             sodipodi:nodetypes="cccccccc" />
          <path
             style="fill:url(#radialGradient12911);fill-opacity:1;stroke:url(#linearGradient12913);stroke-width:2.12598419;stroke-miterlimit:4;stroke-dasharray:none"
             d="M 498.28931,-222.65307 C 597.7262,-258.34028 696.05824,-223.0845 795.49513,-227.07249 785.70148,-257.08521 798.44669,-256.50347 723.6796,-246.95987 709.08735,-260.67155 700.00212,-286.49867 671.75144,-270.16181 663.00086,-293.8189 652.62326,-315.25732 612.08931,-295.57346 591.61501,-295.82074 563.52374,-330.34442 553.53203,-283.42006 538.45412,-277.57677 509.42792,-307.6005 512.65242,-254.69385 497.27129,-249.3103 496.15979,-236.79195 498.28931,-222.65307 z"
             id="path12723"
             inkscape:connector-curvature="0"
             sodipodi:nodetypes="cccccccc" />
          <path
             style="fill:#fdfdfd;fill-opacity:1;stroke:none"
             d="M 760.9375,-328.56177 C 752.59186,-336.52721 752.93073,-343.76893 769.53125,-349.65552 803.43392,-363.78831 789.19297,-342.61578 795.3125,-336.37427 803.99308,-298.65675 743.44339,-303.57821 760.9375,-328.56177 z"
             id="path12725"
             inkscape:connector-curvature="0"
             sodipodi:nodetypes="cccc" />
          <path
             style="fill:#fdfdfd;fill-opacity:1;stroke:none"
             d="M 821.09375,-306.68677 C 816.57485,-321.37045 824.89288,-326.06985 839.0625,-326.21802 866.14637,-323.31012 860.67874,-314.97698 850.78125,-305.90552 835.59435,-284.36645 830.72912,-292.49648 821.09375,-306.68677 z"
             id="path12727"
             inkscape:connector-curvature="0"
             sodipodi:nodetypes="cccc" />
          <path
             style="fill:#fdfdfd;fill-opacity:1;stroke:none"
             d="M 770.94016,-373.98257 C 777.73484,-371.39286 782.44917,-368.15483 777.57137,-361.92743 774.14734,-359.0528 771.13951,-355.31345 764.30894,-359.51641 747.09964,-362.48806 755.5546,-374.53973 770.94016,-373.98257 z"
             id="path12729"
             inkscape:connector-curvature="0"
             sodipodi:nodetypes="cccc" />
          <path
             sodipodi:nodetypes="cccc"
             inkscape:connector-curvature="0"
             id="path12731"
             d="M 770.23591,-370.08346 C 774.43617,-368.48258 777.35042,-366.48094 774.33512,-362.63135 772.21849,-360.85435 770.35914,-358.5428 766.1367,-361.14093 755.49845,-362.97792 760.72504,-370.42788 770.23591,-370.08346 z"
             style="fill:#d6fdfd;fill-opacity:1;stroke:none" />
          <path
             sodipodi:nodetypes="cccc"
             inkscape:connector-curvature="0"
             id="path12733"
             d="M 765.0199,-331.57034 C 760.04708,-336.31661 760.249,-340.63165 770.14056,-344.13922 790.34174,-352.56036 781.85615,-339.94454 785.50253,-336.22548 790.67492,-313.75118 754.59589,-316.68368 765.0199,-331.57034 z"
             style="fill:#d6fdfd;fill-opacity:1;stroke:none" />
          <path
             sodipodi:nodetypes="cccc"
             inkscape:connector-curvature="0"
             id="path12735"
             d="M 825.386,-310.01825 C 822.31429,-319.99944 827.96844,-323.19384 837.6002,-323.29456 856.01037,-321.31792 852.29377,-315.6535 845.56598,-309.4872 835.24273,-294.84609 831.93561,-300.37245 825.386,-310.01825 z"
             style="fill:#d6fdfd;fill-opacity:1;stroke:none" />
          <path
             sodipodi:nodetypes="cccc"
             inkscape:connector-curvature="0"
             id="path12737"
             d="M 964.96758,-206.61557 C 964.12411,-206.2941 963.5389,-205.89214 964.14441,-205.1191 964.56945,-204.76226 964.94283,-204.29807 965.79075,-204.81981 967.92704,-205.18869 966.87747,-206.68474 964.96758,-206.61557 z"
             style="fill:#fdfdfd;fill-opacity:1;stroke:none" />
          <path
             style="fill:#d6fdfd;fill-opacity:1;stroke:none"
             d="M 965.055,-206.13156 C 964.5336,-205.93283 964.17183,-205.68435 964.54614,-205.20648 964.80889,-204.98589 965.0397,-204.69895 965.56386,-205.02147 966.88444,-205.2495 966.23564,-206.17431 965.055,-206.13156 z"
             id="path12739"
             inkscape:connector-curvature="0"
             sodipodi:nodetypes="cccc" />
          <path
             sodipodi:type="arc"
             style="fill:#fdfdfd;fill-opacity:1;fill-rule:nonzero;stroke:none"
             id="path12741"
             sodipodi:cx="811.72266"
             sodipodi:cy="-339.90573"
             sodipodi:rx="4.3503642"
             sodipodi:ry="3.7288835"
             d="M 816.07302,-339.90573 C 816.07302,-337.84633 814.1253,-336.17685 811.72266,-336.17685 809.32002,-336.17685 807.37229,-337.84633 807.37229,-339.90573 807.37229,-341.96514 809.32002,-343.63461 811.72266,-343.63461 814.1253,-343.63461 816.07302,-341.96514 816.07302,-339.90573 z" />
          <path
             sodipodi:type="arc"
             style="fill:#d6fdfd;fill-opacity:1;fill-rule:nonzero;stroke:none"
             id="path12743"
             sodipodi:cx="811.9989"
             sodipodi:cy="-340.32007"
             sodipodi:rx="2.4168689"
             sodipodi:ry="1.7953883"
             d="M 814.41577,-340.32007 C 814.41577,-339.3285 813.3337,-338.52468 811.9989,-338.52468 810.6641,-338.52468 809.58203,-339.3285 809.58203,-340.32007 809.58203,-341.31163 810.6641,-342.11546 811.9989,-342.11546 813.3337,-342.11546 814.41577,-341.31163 814.41577,-340.32007 z" />
        </g>
        <g
           id="g12841"
           transform="matrix(1.110343,0,0,1.110343,-5061.6521,2289.88)">
          <path
             style="fill:url(#radialGradient13741);fill-opacity:1;stroke:none"
             d="M 671.43528,-301.11161 C 696.78578,-314.1778 743.66568,-320.54709 743.21493,-266.93193 820.99787,-313.77274 835.39723,-246.78472 848.00048,-229.6583 815.38708,-224.51257 873.4081,-241.92777 837.2475,-208.36567 z"
             id="path12843"
             inkscape:connector-curvature="0"
             sodipodi:nodetypes="ccccc" />
          <path
             sodipodi:nodetypes="cccc"
             inkscape:connector-curvature="0"
             id="path12845"
             d="M 596.62135,-324.8521 C 603.02015,-344.65076 638.60256,-353.52512 671.19902,-297.78317 718.17945,-322.32307 738.00946,-294.67947 736.38542,-294.46861 686.93438,-274.36185 636.27387,-305.76479 596.62135,-324.8521 z"
             style="fill:url(#linearGradient13743);fill-opacity:1;stroke:none" />
          <path
             sodipodi:nodetypes="ccccc"
             inkscape:connector-curvature="0"
             id="path12847"
             d="M 472.87766,-206.08026 C 455.39497,-232.49967 427.50966,-263.9313 488.46816,-266.10525 467.92477,-306.712 507.07241,-319.41771 519.47111,-307.52579 482.13816,-346.04703 588.28433,-377.62631 600.48834,-329.82394 z"
             style="fill:url(#radialGradient13745);fill-opacity:1;stroke:none" />
          <path
             sodipodi:nodetypes="cccccccc"
             inkscape:connector-curvature="0"
             id="path12849"
             d="M 470.82673,-205.9055 C 593.07877,-252.01636 726.92379,-197.17782 850,-227.62027 817.90504,-243.40916 834.41756,-307.80552 743.09652,-264.36834 733.71489,-312.99558 707.86287,-305.40538 689.64479,-301.11641 661.27624,-288.58208 635.30877,-360.45426 601.7332,-328.07781 573.54062,-375.01953 501.94503,-325.35458 522.52959,-309.61218 477.7852,-302.79113 484.55345,-274.66894 492.5415,-264.36834 465.29496,-259.88694 445.29374,-249.97154 470.82673,-205.9055 z"
             style="fill:#fdfdfd;fill-opacity:1;stroke:none" />
          <path
             sodipodi:nodetypes="cccccccc"
             inkscape:connector-curvature="0"
             id="path12851"
             d="M 498.28931,-222.65307 C 597.7262,-258.34028 696.05824,-223.0845 795.49513,-227.07249 785.70148,-257.08521 798.44669,-256.50347 723.6796,-246.95987 709.08735,-260.67155 700.00212,-286.49867 671.75144,-270.16181 663.00086,-293.8189 652.62326,-315.25732 612.08931,-295.57346 591.61501,-295.82074 563.52374,-330.34442 553.53203,-283.42006 538.45412,-277.57677 509.42792,-307.6005 512.65242,-254.69385 497.27129,-249.3103 496.15979,-236.79195 498.28931,-222.65307 z"
             style="fill:url(#radialGradient13747);fill-opacity:1;stroke:url(#linearGradient13749);stroke-width:2.12598419;stroke-miterlimit:4;stroke-dasharray:none" />
          <path
             sodipodi:nodetypes="cccc"
             inkscape:connector-curvature="0"
             id="path12853"
             d="M 760.9375,-328.56177 C 752.59186,-336.52721 752.93073,-343.76893 769.53125,-349.65552 803.43392,-363.78831 789.19297,-342.61578 795.3125,-336.37427 803.99308,-298.65675 743.44339,-303.57821 760.9375,-328.56177 z"
             style="fill:#fdfdfd;fill-opacity:1;stroke:none" />
          <path
             sodipodi:nodetypes="cccc"
             inkscape:connector-curvature="0"
             id="path12857"
             d="M 770.94016,-373.98257 C 777.73484,-371.39286 782.44917,-368.15483 777.57137,-361.92743 774.14734,-359.0528 771.13951,-355.31345 764.30894,-359.51641 747.09964,-362.48806 755.5546,-374.53973 770.94016,-373.98257 z"
             style="fill:#fdfdfd;fill-opacity:1;stroke:none" />
          <path
             style="fill:#d6fdfd;fill-opacity:1;stroke:none"
             d="M 770.23591,-370.08346 C 774.43617,-368.48258 777.35042,-366.48094 774.33512,-362.63135 772.21849,-360.85435 770.35914,-358.5428 766.1367,-361.14093 755.49845,-362.97792 760.72504,-370.42788 770.23591,-370.08346 z"
             id="path12859"
             inkscape:connector-curvature="0"
             sodipodi:nodetypes="cccc" />
          <path
             style="fill:#d6fdfd;fill-opacity:1;stroke:none"
             d="M 765.0199,-331.57034 C 760.04708,-336.31661 760.249,-340.63165 770.14056,-344.13922 790.34174,-352.56036 781.85615,-339.94454 785.50253,-336.22548 790.67492,-313.75118 754.59589,-316.68368 765.0199,-331.57034 z"
             id="path12861"
             inkscape:connector-curvature="0"
             sodipodi:nodetypes="cccc" />
          <path
             style="fill:#fdfdfd;fill-opacity:1;stroke:none"
             d="M 964.96758,-206.61557 C 964.12411,-206.2941 963.5389,-205.89214 964.14441,-205.1191 964.56945,-204.76226 964.94283,-204.29807 965.79075,-204.81981 967.92704,-205.18869 966.87747,-206.68474 964.96758,-206.61557 z"
             id="path12865"
             inkscape:connector-curvature="0"
             sodipodi:nodetypes="cccc" />
          <path
             sodipodi:nodetypes="cccc"
             inkscape:connector-curvature="0"
             id="path12867"
             d="M 965.055,-206.13156 C 964.5336,-205.93283 964.17183,-205.68435 964.54614,-205.20648 964.80889,-204.98589 965.0397,-204.69895 965.56386,-205.02147 966.88444,-205.2495 966.23564,-206.17431 965.055,-206.13156 z"
             style="fill:#d6fdfd;fill-opacity:1;stroke:none" />
        </g>
        <rect
           y="2525.0466"
           x="-4633.2134"
           height="141.73788"
           width="1057.1428"
           id="rect13723"
           style="fill:url(#linearGradient13739);fill-opacity:1;fill-rule:evenodd;stroke:none" />
        <g
           transform="translate(-252.88234,-5.6887722)"
           id="g12745">
          <g
             transform="translate(-4653.3154,3447.9945)"
             id="g12747">
            <g
               id="g12749"
               transform="translate(2.34375,-11.71875)">
              <path
                 sodipodi:nodetypes="ccsccsssscc"
                 inkscape:connector-curvature="0"
                 id="path12751"
                 d="M 609.96952,-953.58338 C 658.75886,-955.11479 678.73582,-942.64856 701.86088,-934.19942 704.13521,-939.7372 706.93581,-942.90983 709.27731,-947.11311 755.00144,-1029.1938 751.37599,-1074.2459 725.91218,-1175.4883 L 704.96427,-1179.3675 C 718.86067,-1099.242 703.90254,-1041.2178 668.4594,-998.88426 668.00208,-998.33802 667.54135,-997.79441 667.07723,-997.2534 664.01732,-993.68655 660.80995,-990.23265 657.46028,-986.88777 657.00523,-986.43336 656.54755,-985.98096 656.08725,-985.53057 649.84793,-979.42545 643.1284,-973.68814 635.96088,-968.294 629.6996,-961.86271 627.54982,-962.598 609.96952,-953.58338 z"
                 style="fill:#9b5014;fill-opacity:1;stroke:none" />
              <path
                 id="path12753"
                 d="M 737.53827,-1124.8604 C 737.21865,-1126.481 736.90802,-1128.086 736.56846,-1129.7366 736.22868,-1131.3883 735.86101,-1133.0889 735.50167,-1134.7718 L 720.48124,-1132.0409 737.53827,-1124.8604 z"
                 style="fill:#783e10;fill-opacity:1;stroke:none"
                 inkscape:connector-curvature="0" />
              <path
                 id="path12755"
                 d="M 742.06534,-1097.9772 C 742.06334,-1097.9902 742.06334,-1098.0032 742.06134,-1098.0162 741.72804,-1100.5183 741.36052,-1103.0524 740.96351,-1105.6196 740.56651,-1108.1867 740.13826,-1110.7857 739.67949,-1113.4246 739.51069,-1114.3955 739.31725,-1115.3993 739.14027,-1116.3806 L 718.92941,-1110.3173 742.06522,-1097.9774 z"
                 style="fill:#783e10;fill-opacity:1;stroke:none"
                 inkscape:connector-curvature="0" />
              <path
                 id="path12757"
                 d="M 744.35798,-1071.4122 C 744.30178,-1073.0171 744.25042,-1074.618 744.16013,-1076.2418 744.02968,-1078.5883 743.86361,-1080.9569 743.66359,-1083.3486 743.5204,-1085.0609 743.33728,-1086.8007 743.15929,-1088.5391 L 719.70539,-1081.6107 744.35798,-1071.4122 z"
                 style="fill:#783e10;fill-opacity:1;stroke:none"
                 inkscape:connector-curvature="0" />
              <path
                 id="path12759"
                 d="M 743.95453,-1048.707 C 743.95853,-1048.765 743.96573,-1048.8232 743.97003,-1048.8816 744.13734,-1051.113 744.26413,-1053.354 744.35408,-1055.6043 744.38588,-1056.4007 744.38998,-1057.2062 744.41228,-1058.0055 L 720.48124,-1052.1285 743.95453,-1048.707 z"
                 style="fill:#783e10;fill-opacity:1;stroke:none"
                 inkscape:connector-curvature="0" />
              <path
                 id="path12761"
                 d="M 735.88183,-1006.8267 C 736.08847,-1007.496 736.31928,-1008.1729 736.51803,-1008.84 737.1905,-1011.0973 737.81606,-1013.3419 738.39946,-1015.5783 738.98286,-1017.8147 739.5247,-1020.0439 740.02098,-1022.2661 740.31642,-1023.5889 740.56275,-1024.9071 740.82787,-1026.2268 L 710.39521,-1022.6462 735.88183,-1006.8267 z"
                 style="fill:#783e10;fill-opacity:1;stroke:none"
                 inkscape:connector-curvature="0" />
              <path
                 id="path12763"
                 d="M 724.08894,-976.23112 C 724.80992,-977.8135 725.54293,-979.40357 726.22252,-980.96379 727.27078,-983.37043 728.26979,-985.75 729.22117,-988.10936 729.55415,-988.93512 729.85031,-989.7444 730.17159,-990.56492 L 694.1024,-984.62967 724.08894,-976.23112 z"
                 style="fill:#783e10;fill-opacity:1;stroke:none"
                 inkscape:connector-curvature="0" />
              <path
                 id="path12765"
                 d="M 709.21592,-947.04758 C 709.88566,-948.24963 710.58447,-949.4727 711.23313,-950.65916 712.68838,-953.32093 714.09153,-955.94208 715.4421,-958.53013 716.21566,-960.01247 716.93683,-961.4577 717.67654,-962.91756 L 663.06846,-954.37159 709.21592,-947.04758 z"
                 style="fill:#783e10;fill-opacity:1;stroke:none"
                 inkscape:connector-curvature="0" />
              <path
                 inkscape:connector-curvature="0"
                 id="path12767"
                 d="M 655.37592,-984.84304 C 655.2511,-984.72215 655.12873,-984.59899 655.00351,-984.47839 654.08625,-983.59489 653.15959,-982.72015 652.2221,-981.85213 651.28462,-980.98413 650.33612,-980.12513 649.37862,-979.27244 648.42111,-978.41976 647.45426,-977.57293 646.47695,-976.73542 645.49963,-975.89791 644.51402,-975.06742 643.51708,-974.24495 642.52015,-973.42247 641.51151,-972.60863 640.49515,-971.80103 639.4788,-970.99342 638.45449,-970.19266 637.41891,-969.39978 636.53193,-968.72066 635.63543,-968.051 634.73448,-967.38257 L 703.41258,-969.88855 655.37592,-984.84304 z"
                 style="fill:#50290a;fill-opacity:1;stroke:none" />
              <path
                 inkscape:connector-curvature="0"
                 id="path12769"
                 d="M 682.92631,-1018.9183 C 682.43917,-1018.1299 681.95531,-1017.3388 681.45607,-1016.5597 680.77431,-1015.4958 680.08095,-1014.441 679.37679,-1013.3943 678.67263,-1012.3475 677.95794,-1011.3089 677.23158,-1010.2792 676.50521,-1009.2495 675.76489,-1008.2275 675.01653,-1007.2146 674.26816,-1006.2018 673.50959,-1005.2005 672.73941,-1004.2043 671.96923,-1003.2082 671.18814,-1002.2202 670.39634,-1001.2406 669.60456,-1000.261 668.80441,-999.28661 667.99121,-998.32341 667.87124,-998.18128 667.74701,-998.04233 667.62658,-997.90056 L 725.91218,-1000.9225 682.92631,-1018.9183 z"
                 style="fill:#50290a;fill-opacity:1;stroke:none" />
              <path
                 inkscape:connector-curvature="0"
                 id="path12771"
                 d="M 699.48291,-1054.169 C 699.13878,-1053.1541 698.79172,-1052.1419 698.43163,-1051.1393 697.98489,-1049.8954 697.52564,-1048.6598 697.05449,-1047.4346 696.58336,-1046.2094 696.099,-1044.9948 695.60367,-1043.7881 695.10833,-1042.5814 694.60233,-1041.3842 694.08301,-1040.1959 693.56367,-1039.0076 693.03176,-1037.8281 692.48863,-1036.6581 692.1796,-1035.9923 691.85879,-1035.3357 691.5421,-1034.6758 L 736.77406,-1042.8183 699.48291,-1054.169 z"
                 style="fill:#50290a;fill-opacity:1;stroke:none" />
              <path
                 inkscape:connector-curvature="0"
                 id="path12773"
                 d="M 705.77891,-1077.7043 C 705.5672,-1076.6518 705.35404,-1075.5993 705.1272,-1074.5583 704.83103,-1073.199 704.52183,-1071.8518 704.20007,-1070.5122 703.8783,-1069.1726 703.54638,-1067.8407 703.19921,-1066.5205 702.85205,-1065.2003 702.49314,-1063.8917 702.1208,-1062.5908 702.0872,-1062.4736 702.0498,-1062.3588 702.01605,-1062.2417 L 734.44651,-1067.6454 705.77891,-1077.7043 z"
                 style="fill:#50290a;fill-opacity:1;stroke:none" />
              <path
                 inkscape:connector-curvature="0"
                 id="path12775"
                 d="M 709.40213,-1104.2888 C 709.2962,-1102.8857 709.17867,-1101.492 709.04911,-1100.1069 708.91067,-1098.6269 708.76047,-1097.1558 708.59524,-1095.6963 708.43002,-1094.2367 708.25172,-1092.7868 708.05991,-1091.3476 707.94933,-1090.5179 707.82239,-1089.6995 707.70302,-1088.8765 L 730.56727,-1096.3518 709.40213,-1104.2888 z"
                 style="fill:#50290a;fill-opacity:1;stroke:none" />
              <path
                 inkscape:connector-curvature="0"
                 id="path12777"
                 d="M 710.03832,-1129.147 C 710.04732,-1128.7243 710.06242,-1128.2957 710.06932,-1127.8746 710.09582,-1126.2682 710.10962,-1124.6725 710.10812,-1123.0876 710.10712,-1121.5027 710.09092,-1119.9302 710.06152,-1118.3665 710.04972,-1117.7343 710.02362,-1117.11 710.00722,-1116.4812 L 729.0155,-1123.5065 710.03825,-1129.147 z"
                 style="fill:#50290a;fill-opacity:1;stroke:none" />
              <path
                 inkscape:connector-curvature="0"
                 id="path12779"
                 d="M 709.27023,-1145.0169 C 709.32963,-1144.2192 709.39576,-1143.4162 709.44868,-1142.6234 709.56028,-1140.9519 709.66048,-1139.2922 709.7435,-1137.6425 709.7813,-1136.8912 709.8047,-1136.1509 709.8366,-1135.4042 L 726.68803,-1141.351 709.27023,-1145.0169 z"
                 style="fill:#50290a;fill-opacity:1;stroke:none" />
            </g>
            <g
               id="g12781">
              <path
                 style="fill:#40b969;fill-opacity:1;stroke:none"
                 d="M 695.09548,-1197.86 C 684.52588,-1197.929 672.25138,-1193.6187 662.53822,-1190.2901 L 683.42672,-1187.5335 655.24271,-1186.7742 C 648.43177,-1183.3916 634.1062,-1176.5708 627.58024,-1171.9629 L 640.6348,-1167.7804 622.07263,-1168.1838 C 615.10821,-1162.6796 604.96716,-1156.086 598.17833,-1149.6782 L 613.75554,-1150.2268 589.36674,-1138.4223 C 579.03615,-1128.0549 568.76213,-1117.1313 558.34445,-1106.337 622.49631,-1159.0583 702.52568,-1192.4186 726.76725,-1185.0641 L 718.53774,-1194.6635 C 710.44684,-1196.7939 702.64671,-1197.811 695.09548,-1197.86 z"
                 id="path12783"
                 inkscape:connector-curvature="0"
                 sodipodi:nodetypes="sccccccccccccs" />
              <path
                 style="fill:#508c47;fill-opacity:1;stroke:none"
                 d="M 724.02299,-1188.3559 C 672.27033,-1182.9572 618.78031,-1156.441 559.71381,-1107.1594 569.27284,-1110.3979 578.23539,-1113.5176 586.92283,-1116.586 L 606.89704,-1132.1224 596.69208,-1120.9951 C 606.61189,-1124.5849 620.16247,-1128.63 628.94665,-1131.9982 L 645.57308,-1149.4044 637.36389,-1134.894 C 644.26944,-1137.6502 658.25021,-1143.6351 664.41456,-1146.2467 L 687.5426,-1171.0738 680.68786,-1152.3185 C 697.52164,-1160.2026 719.42486,-1172.3558 730.05909,-1179.0302 z"
                 id="path12785"
                 inkscape:connector-curvature="0"
                 sodipodi:nodetypes="ccccccccccccc" />
              <path
                 style="fill:#40b969;fill-opacity:1;stroke:none"
                 d="M 734.51246,-1197.86 C 745.08206,-1197.929 757.35656,-1193.6187 767.06972,-1190.2901 L 746.18122,-1187.5335 774.36523,-1186.7742 C 781.17617,-1183.3916 795.50174,-1176.5708 802.0277,-1171.9629 L 788.97314,-1167.7804 807.53531,-1168.1838 C 814.49973,-1162.6796 824.64078,-1156.086 831.42961,-1149.6782 L 815.8524,-1150.2268 840.2412,-1138.4223 C 850.57179,-1128.0549 860.84581,-1117.1313 871.26349,-1106.337 807.11163,-1159.0583 727.08226,-1192.4186 702.84069,-1185.0641 L 711.0702,-1194.6635 C 719.1611,-1196.7939 726.96123,-1197.811 734.51246,-1197.86 z"
                 id="path12787"
                 inkscape:connector-curvature="0"
                 sodipodi:nodetypes="sccccccccccccs" />
              <path
                 style="fill:#508c47;fill-opacity:1;stroke:none"
                 d="M 705.58495,-1188.3559 C 757.33761,-1182.9572 810.82763,-1156.441 869.89413,-1107.1594 860.3351,-1110.3979 851.37255,-1113.5176 842.68511,-1116.586 L 822.7109,-1132.1224 832.91586,-1120.9951 C 822.99605,-1124.5849 809.44547,-1128.63 800.66129,-1131.9982 L 784.03486,-1149.4044 792.24405,-1134.894 C 785.3385,-1137.6502 771.35773,-1143.6351 765.19338,-1146.2467 L 742.06534,-1171.0738 748.92008,-1152.3185 C 732.0863,-1160.2026 710.18308,-1172.3558 699.54885,-1179.0302 z"
                 id="path12789"
                 inkscape:connector-curvature="0"
                 sodipodi:nodetypes="ccccccccccccc" />
              <path
                 sodipodi:nodetypes="sccccccccccccs"
                 inkscape:connector-curvature="0"
                 id="path12791"
                 d="M 722.89518,-1201.9737 C 732.71844,-1198.0718 742.47935,-1189.4717 750.23417,-1182.742 L 729.83729,-1188.0237 755.6777,-1176.7459 C 760.72204,-1171.055 771.44217,-1159.3579 775.76263,-1152.6381 L 762.09247,-1153.6589 779.45009,-1147.0688 C 783.84073,-1139.3537 790.76725,-1129.4371 794.6561,-1120.9503 L 780.42258,-1127.3031 798.60106,-1107.2107 C 804.28743,-1093.7248 809.71269,-1079.7446 815.31963,-1065.8304 775.63368,-1138.7688 726.37983,-1181.485 701.14979,-1183.7626 L 720.52603,-1199.2714 C 728.82521,-1198.2107 715.87716,-1204.7614 722.89518,-1201.9737 z"
                 style="fill:#40b969;fill-opacity:1;stroke:none" />
              <path
                 sodipodi:nodetypes="ccccccccccccc"
                 inkscape:connector-curvature="0"
                 id="path12793"
                 d="M 721.22139,-1185.0085 C 715.18638,-1200.156 778.09631,-1134.9486 814.35884,-1067.1065 806.71305,-1073.6946 799.57566,-1079.9491 792.67399,-1086.0526 L 779.98772,-1107.948 785.27254,-1093.8048 C 777.42417,-1100.8541 766.38102,-1109.6876 759.5022,-1116.1054 L 750.62067,-1138.478 752.78623,-1121.9476 C 747.41918,-1127.0933 736.70507,-1137.8863 731.97081,-1142.6198 L 719.84679,-1174.3105 719.16423,-1154.3535 C 706.51802,-1167.9773 717.15324,-1168.0642 709.79987,-1178.2407 z"
                 style="fill:#508c47;fill-opacity:1;stroke:none" />
              <path
                 sodipodi:nodetypes="sccccccccccccs"
                 inkscape:connector-curvature="0"
                 id="path12795"
                 d="M 696.86097,-1186.6314 C 688.50846,-1180.154 681.52113,-1169.1805 675.94126,-1160.5614 L 694.0678,-1171.3018 672.37787,-1153.289 C 669.11316,-1146.4207 662.06479,-1132.2058 659.78131,-1124.5502 L 672.62972,-1129.3287 657.78631,-1118.1757 C 655.71194,-1109.5445 651.81314,-1098.094 650.43521,-1088.8609 L 662.34346,-1098.9179 650.46273,-1074.5661 C 648.7469,-1060.0314 647.41923,-1045.0943 645.89871,-1030.17 663.7584,-1111.2627 706.06522,-1186.9446 729.66925,-1196.142 L 717.26717,-1198.604 C 709.58941,-1195.2793 702.82824,-1191.259 696.86097,-1186.6314 z"
                 style="fill:#40b969;fill-opacity:1;stroke:none" />
              <path
                 sodipodi:nodetypes="ccccccccccccc"
                 inkscape:connector-curvature="0"
                 id="path12797"
                 d="M 725.47755,-1197.0343 C 688.12416,-1160.8099 662.45407,-1106.9087 646.46716,-1031.6628 651.98161,-1040.1158 657.1004,-1048.1069 662.03466,-1055.8877 L 668.13848,-1080.4456 666.991,-1065.391 C 672.57194,-1074.3432 680.72622,-1085.8969 685.55122,-1093.9732 L 687.86751,-1117.9325 690.37971,-1101.4513 C 694.10587,-1107.8855 701.39966,-1121.2302 704.63247,-1127.0927 L 707.47481,-1160.9041 713.67501,-1141.9223 C 722.03837,-1158.5232 731.74938,-1181.6132 735.98599,-1193.4321 z"
                 style="fill:#508c47;fill-opacity:1;stroke:none" />
            </g>
            <g
               id="g12799">
              <path
                 id="path12801"
                 d="M 744.47652,-1212.7393 C 741.35357,-1204.3003 733.20242,-1199.5388 726.27042,-1202.1041 719.33841,-1204.6693 716.25056,-1213.59 719.3735,-1222.029 722.49645,-1230.468 730.6476,-1235.2295 737.57961,-1232.6643 744.51162,-1230.099 747.59947,-1221.1783 744.47652,-1212.7393 z"
                 style="fill:#9b5014;fill-opacity:1;fill-rule:nonzero;stroke:none"
                 inkscape:connector-curvature="0" />
              <path
                 sodipodi:nodetypes="cccccccc"
                 inkscape:connector-curvature="0"
                 id="path12803"
                 d="M 722.27539,-1227.0337 C 723.07367,-1230.6688 725.29608,-1234.1943 727.75481,-1237.7017 727.88084,-1235.827 727.4036,-1236.9686 728.14274,-1232.0283 732.62774,-1234.7563 735.83862,-1238.9708 739.635,-1242.5022 740.8897,-1238.1281 741.10451,-1234.3213 740.94424,-1230.719 L 742.64141,-1237.1683 C 743.64311,-1232.4647 745.21869,-1227.7611 745.16292,-1223.0575 z"
                 style="fill:#9b5014;fill-opacity:1;stroke:none" />
              <path
                 sodipodi:nodetypes="cccsscccc"
                 inkscape:connector-curvature="0"
                 id="path12805"
                 d="M 742.6899,-1237.0209 C 742.56937,-1230.6568 743.92058,-1220.432 741.94509,-1217.4967 737.65701,-1212.2184 721.75861,-1210.1855 718.22741,-1216.8334 717.69218,-1210.198 720.75966,-1204.1427 726.26907,-1202.1039 733.20108,-1199.5386 741.35528,-1204.3018 744.47823,-1212.7408 745.44799,-1215.3613 745.80155,-1218.0226 745.642,-1220.5303 L 745.646,-1220.5303 C 745.51153,-1226.2834 743.87958,-1231.8501 742.69001,-1237.017 z"
                 style="fill:#50290a;fill-opacity:1;fill-rule:nonzero;stroke:none" />
              <path
                 sodipodi:nodetypes="cccc"
                 inkscape:connector-curvature="0"
                 id="path12807"
                 d="M 727.70633,-1237.5562 C 726.25154,-1234.2038 724.57807,-1230.764 724.36048,-1227.9066 725.16763,-1229.0547 725.32041,-1229.9334 728.19124,-1231.9313 z"
                 style="fill:#50290a;fill-opacity:1;stroke:none" />
              <path
                 sodipodi:nodetypes="cccc"
                 inkscape:connector-curvature="0"
                 id="path12809"
                 d="M 739.73198,-1242.3567 C 739.23571,-1237.0122 738.20577,-1231.8618 736.28915,-1227.0337 737.35807,-1227.3607 738.02884,-1226.9977 740.94424,-1230.5251 740.93344,-1234.8293 740.89314,-1239.075 739.73198,-1242.3567 z"
                 style="fill:#50290a;fill-opacity:1;stroke:none" />
              <path
                 style="fill:#9b5014;fill-opacity:1;fill-rule:nonzero;stroke:none"
                 d="M 740.87828,-1181.4239 C 732.84547,-1177.3689 723.63338,-1179.4307 720.3025,-1186.0291 716.97162,-1192.6275 720.78329,-1201.2637 728.8161,-1205.3187 736.84891,-1209.3737 746.061,-1207.3119 749.39188,-1200.7135 752.72276,-1194.1151 748.91109,-1185.4788 740.87828,-1181.4239 z"
                 id="path12811"
                 inkscape:connector-curvature="0" />
              <path
                 style="fill:#9b5014;fill-opacity:1;stroke:none"
                 d="M 734.34893,-1207.0088 C 737.40845,-1209.1278 741.43649,-1210.1971 745.62526,-1211.0921 744.44125,-1209.6332 744.86892,-1210.7943 742.04685,-1206.6725 747.18919,-1205.6172 752.41032,-1206.5181 757.59524,-1206.52 755.53631,-1202.462 753.10187,-1199.5274 750.53199,-1196.998 L 756.16584,-1200.5663 C 753.69726,-1196.4392 751.64901,-1191.9214 748.40588,-1188.5142 z"
                 id="path12813"
                 inkscape:connector-curvature="0"
                 sodipodi:nodetypes="cccccccc" />
              <path
                 style="fill:#50290a;fill-opacity:1;fill-rule:nonzero;stroke:none"
                 d="M 756.10106,-1200.4254 C 751.67995,-1195.846 745.7084,-1187.4369 742.26308,-1186.6319 735.5287,-1185.6852 722.49981,-1195.0201 724.43938,-1202.2935 719.52986,-1197.7977 717.65411,-1191.2741 720.30142,-1186.0299 723.63231,-1179.4315 732.84774,-1177.3688 740.88055,-1181.4238 743.37495,-1182.683 745.44578,-1184.3915 747.0362,-1186.3369 L 747.0412,-1186.3371 C 750.85955,-1190.6426 753.4541,-1195.831 756.10057,-1200.4254 z"
                 id="path12815"
                 inkscape:connector-curvature="0"
                 sodipodi:nodetypes="cccsscccc" />
              <path
                 style="fill:#50290a;fill-opacity:1;stroke:none"
                 d="M 745.4907,-1211.0185 C 742.14281,-1209.5535 738.57518,-1208.1734 736.4704,-1206.2286 737.84326,-1206.52 738.5534,-1207.0596 742.01634,-1206.5684 z"
                 id="path12817"
                 inkscape:connector-curvature="0"
                 sodipodi:nodetypes="cccc" />
              <path
                 style="fill:#50290a;fill-opacity:1;stroke:none"
                 d="M 757.56723,-1206.3474 C 753.56509,-1202.7707 749.30419,-1199.6994 744.61335,-1197.468 745.61889,-1196.9797 745.86294,-1196.2571 750.39993,-1196.856 753.32241,-1200.016 756.18346,-1203.1532 757.56723,-1206.3474 z"
                 id="path12819"
                 inkscape:connector-curvature="0"
                 sodipodi:nodetypes="cccc" />
              <path
                 id="path12821"
                 d="M 724.63331,-1217.6528 C 728.92817,-1209.7457 727.14447,-1200.4757 720.64931,-1196.9478 714.15414,-1193.4199 705.4071,-1196.9698 701.11224,-1204.8771 696.81739,-1212.7842 698.60109,-1222.0542 705.09625,-1225.5821 711.59141,-1229.11 720.33845,-1225.5601 724.63331,-1217.6528 z"
                 style="fill:#9b5014;fill-opacity:1;fill-rule:nonzero;stroke:none"
                 inkscape:connector-curvature="0" />
              <path
                 sodipodi:nodetypes="cccccccc"
                 inkscape:connector-curvature="0"
                 id="path12823"
                 d="M 699.25643,-1210.3566 C 697.0463,-1213.3509 695.85637,-1217.345 694.83572,-1221.5049 696.3296,-1220.3653 695.15617,-1220.7579 699.36099,-1218.0611 700.26109,-1223.2329 699.2035,-1228.4245 699.04552,-1233.6071 703.16367,-1231.6712 706.17018,-1229.3261 708.77574,-1226.8335 L 705.03953,-1232.3575 C 709.23907,-1230.0142 713.81649,-1228.1028 717.31971,-1224.9637 z"
                 style="fill:#9b5014;fill-opacity:1;stroke:none" />
              <path
                 sodipodi:nodetypes="cccsscccc"
                 inkscape:connector-curvature="0"
                 id="path12825"
                 d="M 705.18233,-1232.2969 C 709.89267,-1228.0156 718.47768,-1222.2998 719.38597,-1218.8803 720.53489,-1212.1774 711.59628,-1198.8736 704.26784,-1200.5934 708.90924,-1195.8214 715.48633,-1194.1428 720.64854,-1196.9467 727.14371,-1200.4746 728.92819,-1209.7479 724.63333,-1217.6551 723.29966,-1220.1105 721.52955,-1222.129 719.53719,-1223.6601 L 719.53683,-1223.6701 C 715.11843,-1227.3571 709.85433,-1229.7944 705.18234,-1232.3014 z"
                 style="fill:#50290a;fill-opacity:1;fill-rule:nonzero;stroke:none" />
              <path
                 sodipodi:nodetypes="cccc"
                 inkscape:connector-curvature="0"
                 id="path12827"
                 d="M 694.91327,-1221.3726 C 696.47834,-1218.0703 697.96523,-1214.5459 699.97251,-1212.5006 699.63989,-1213.864 699.07919,-1214.5576 699.46592,-1218.0338 z"
                 style="fill:#50290a;fill-opacity:1;stroke:none" />
              <path
                 sodipodi:nodetypes="cccc"
                 inkscape:connector-curvature="0"
                 id="path12829"
                 d="M 699.21887,-1233.5843 C 702.91441,-1229.6916 706.1125,-1225.525 708.48407,-1220.9034 708.94185,-1221.9232 709.65686,-1222.1889 708.92172,-1226.7058 705.67519,-1229.5319 702.4533,-1232.2972 699.21887,-1233.5843 z"
                 style="fill:#50290a;fill-opacity:1;stroke:none" />
            </g>
          </g>
          <g
             id="g12831">
            <g
               id="g12833">
              <path
                 sodipodi:nodetypes="ccc"
                 inkscape:connector-curvature="0"
                 id="path12835"
                 d="M -4188.8185,2562.2994 C -4055.8443,2412.7602 -3880.6847,2499.5703 -3734.7234,2557.88 z"
                 style="fill:#f7cb4e;fill-opacity:1;stroke:none" />
              <path
                 sodipodi:nodetypes="ccc"
                 inkscape:connector-curvature="0"
                 id="path12837"
                 d="M -4178.8748,2563.9567 C -4178.8748,2563.9567 -3883.2595,2586.4747 -3732.5136,2559.5373 -3909.8556,2484.1332 -4076.7001,2441.1758 -4189.9233,2563.9567"
                 style="fill:#fae096;fill-opacity:1;stroke:none" />
            </g>
            <path
               style="fill:#fdf4d7;fill-opacity:1;stroke:none"
               d="M -4122.1793,2512.2006 C -4017.2576,2558.5957 -3922.2351,2545.5954 -3828.9606,2522.1068 -3937.6887,2484.8344 -4039.0603,2470.3175 -4122.1793,2512.2006 z"
               id="path12839"
               inkscape:connector-curvature="0"
               sodipodi:nodetypes="ccc" />
          </g>
        </g>
      </g>
    </g>
    <text
       sodipodi:linespacing="125%"
       id="text20534"
       y="905.14825"
       x="-2704.7268"
       style="font-size:171.42681885px;font-style:normal;font-variant:normal;font-weight:normal;font-stretch:normal;line-height:125%;letter-spacing:0px;word-spacing:0px;fill:#000000;fill-opacity:1;stroke:none;font-family:Chewy;-inkscape-font-specification:Chewy"
       xml:space="preserve"><tspan
         style="font-style:normal;font-variant:normal;font-weight:normal;font-stretch:normal;font-family:Arial;-inkscape-font-specification:Arial"
         y="905.14825"
         x="-2704.7268"
         sodipodi:role="line"
         id="tspan20538">Credit not required but very much apprechiated.</tspan><tspan
         style="font-style:normal;font-variant:normal;font-weight:normal;font-stretch:normal;font-family:Arial;-inkscape-font-specification:Arial"
         y="1119.4318"
         x="-2704.7268"
         sodipodi:role="line"
         id="tspan20540">Support by giving credit, linking back to voodoocactus.com or just following us.</tspan><tspan
         style="font-style:normal;font-variant:normal;font-weight:normal;font-stretch:normal;fill:#0000ff;font-family:Arial;-inkscape-font-specification:Arial"
         y="1333.7153"
         x="-2704.7268"
         sodipodi:role="line"
         id="tspan20582" /></text>
    <a
       transform="translate(-2044.4545,-799.07736)"
       id="a20695"
       xlink:href="https://twitter.com/laurentzubiaur">
      <text
         sodipodi:linespacing="125%"
         id="text20650"
         y="2155.6499"
         x="1950.1295"
         style="font-size:171.42681885px;font-style:normal;font-variant:normal;font-weight:normal;font-stretch:normal;line-height:125%;letter-spacing:0px;word-spacing:0px;fill:#000000;fill-opacity:1;stroke:none;font-family:Chewy;-inkscape-font-specification:Chewy"
         xml:space="preserve"><tspan
           style="font-style:normal;font-variant:normal;font-weight:normal;font-stretch:normal;fill:#0000ff;font-family:Arial;-inkscape-font-specification:Arial"
           y="2155.6499"
           x="1950.1295"
           sodipodi:role="line"
           id="tspan20656">twitter.com/laurentzubiaur</tspan><tspan
           style="font-style:normal;font-variant:normal;font-weight:normal;font-stretch:normal;fill:#0000ff;font-family:Arial;-inkscape-font-specification:Arial"
           y="2369.9333"
           x="1950.1295"
           sodipodi:role="line"
           id="tspan20658" /></text>
    </a>
    <a
       transform="translate(-2044.4545,-799.07736)"
       id="a20690"
       xlink:href="https://www.facebook.com/voodocactustudio">
      <text
         xml:space="preserve"
         style="font-size:171.42681885px;font-style:normal;font-variant:normal;font-weight:normal;font-stretch:normal;line-height:125%;letter-spacing:0px;word-spacing:0px;fill:#000000;fill-opacity:1;stroke:none;font-family:Chewy;-inkscape-font-specification:Chewy"
         x="-654.16174"
         y="1941.3665"
         id="text20662"
         sodipodi:linespacing="125%"><tspan
           id="tspan20668"
           sodipodi:role="line"
           x="-654.16174"
           y="1941.3665"
           style="font-style:normal;font-variant:normal;font-weight:normal;font-stretch:normal;fill:#0000ff;font-family:Arial;-inkscape-font-specification:Arial" /><tspan
           id="tspan20670"
           sodipodi:role="line"
           x="-654.16174"
           y="2155.6499"
           style="font-style:normal;font-variant:normal;font-weight:normal;font-stretch:normal;fill:#0000ff;font-family:Arial;-inkscape-font-specification:Arial">facebook.com/voodocactustudio</tspan></text>
    </a>
    <text
       xml:space="preserve"
       style="font-size:171.42681885px;font-style:normal;font-variant:normal;font-weight:normal;font-stretch:normal;line-height:125%;letter-spacing:0px;word-spacing:0px;fill:#000000;fill-opacity:1;stroke:none;font-family:Chewy;-inkscape-font-specification:Chewy"
       x="-2694.5793"
       y="-948.98871"
       id="text20511"
       sodipodi:linespacing="125%"><tspan
         sodipodi:role="line"
         id="tspan20513"
         x="-2694.5793"
         y="-948.98871"
         style="font-style:normal;font-variant:normal;font-weight:normal;font-stretch:normal;font-family:Arial;-inkscape-font-specification:Arial">Created by Voodoo Cactus</tspan></text>
  </g>
</svg>
